<?xml version="1.0" encoding="utf-8"?>
<!-- Generator: Adobe Illustrator 21.0.0, SVG Export Plug-In . SVG Version: 6.00 Build 0)  -->
<svg version="1.1" id="Layer_1" xmlns="http://www.w3.org/2000/svg" xmlns:xlink="http://www.w3.org/1999/xlink" x="0px" y="0px"
	 viewBox="0 0 82 82" style="enable-background:new 0 0 82 82;" xml:space="preserve">
<style type="text/css">
	.st0{fill:#3C4043;}
</style>
<title>Instagram</title>
<g id="Layer_2">
	<g id="Icons">
		<path class="st0" d="M63,5H19C11.3,5,5,11.3,5,19v44c0,7.7,6.3,14,14,14h44c7.7,0,14-6.3,14-14V19C77,11.3,70.7,5,63,5z M67,13.3
			h1.6v12.2H56.4V13.3H67z M30.7,33.6c4.1-5.7,12-6.9,17.7-2.8c5.7,4.1,6.9,12,2.8,17.7c-4.1,5.7-12,6.9-17.7,2.8
			c-3.3-2.4-5.2-6.2-5.2-10.3C28.3,38.3,29.2,35.8,30.7,33.6z M70,63c0,3.8-3,6.9-6.8,7c-0.1,0-0.1,0-0.2,0H19c-3.8,0-6.9-3-7-6.8
			c0,0,0-0.1,0-0.1V33.6h10.7c-4.1,10.1,0.8,21.5,10.9,25.6s21.5-0.8,25.6-10.9c1.9-4.7,1.9-10,0-14.8H70V63z"/>
	</g>
</g>
</svg>
